<svg width="46" height="40" viewBox="0 0 46 40" fill="none" xmlns="http://www.w3.org/2000/svg">
<path d="M20 0C9.033 0 0 9.033 0 20C0 30.967 9.033 40 20 40C28.165 40 35.0329 34.9396 38.0859 27.8926L38.0957 27.8828C39.4657 25.2278 44.0128 14.4919 45.5918 9.88086C45.7598 9.37886 46 8.56308 46 7.45508C46 3.40908 42.7276 0 38.6816 0H20ZM20 4C28.656 4 35 11.344 35 20C35 28.656 28.656 36 20 36C11.344 36 4 28.656 4 20C4 11.344 11.344 4 20 4ZM18.3457 6C17.1917 6 16.5105 6.78442 16.4355 7.98242C16.3985 8.57442 16.1686 8.9722 15.7656 9.4082C15.0476 10.1832 14.1526 10.8693 13.9746 12.0312C13.7636 13.4043 13.5204 14.7725 13.3184 16.1465C13.2214 16.8035 13.1577 17.4708 13.1367 18.1348C13.1147 18.8408 13.3054 19.583 13.1504 20.25C12.7754 21.859 12.2217 23.4244 11.8047 25.0254C11.6127 25.7604 11.304 26.286 10.623 26.709C9.08305 27.665 8.64734 29.0906 9.27734 30.6426C9.56234 31.3456 10.2442 31.7066 10.9512 31.5566C11.7432 31.3896 11.6438 30.8286 11.5488 30.2656C11.4478 29.6626 11.8657 29.6341 12.2617 29.6621C13.0207 29.7161 13.4615 29.3906 13.7305 28.6836C14.5305 26.5836 15.3614 24.4943 16.1934 22.4062C16.5204 21.5853 16.8439 21.4909 17.4219 22.1289C18.4159 23.2259 19.3497 24.3778 20.3047 25.5098C20.3647 25.5808 20.4145 25.6737 20.4355 25.7637C20.8235 27.4427 21.2885 29.1086 21.5625 30.8066C21.7585 32.0176 22.5625 32.936 23.8105 33.002C24.1595 33.02 24.6309 33.0228 24.8359 32.7988C24.9689 32.6528 24.805 32.103 24.627 31.832C23.968 30.828 23.8251 29.7275 23.7031 28.5605C23.4971 26.6045 23.3897 24.5765 21.8887 23.0215C21.4667 22.5845 21.0689 22.1176 21.4629 21.4336C21.5189 21.3366 21.4803 21.1214 21.4043 21.0234C20.7073 20.1154 20.0608 19.1547 19.2598 18.3477C18.7368 17.8207 18.5407 17.442 18.9297 16.793C19.1217 16.473 19.3284 16.1119 19.3574 15.7559C19.4174 15.0189 19.7546 14.7467 20.4766 14.6387C21.5006 14.4857 22.5902 14.3982 23.2832 13.4082C23.3872 13.2602 23.7387 13.1678 23.9297 13.2188C24.6507 13.4118 25.0902 13.2479 25.1602 12.3809L25.8262 12.2285C26.3912 11.9485 26.7829 11.7585 27.1699 11.5605C27.6229 11.3295 28.0543 11.0451 28.5273 10.8711C28.9413 10.7191 29.3996 10.6872 29.7676 10.6152C29.5916 10.2322 29.4279 9.8808 29.2949 9.5918C28.4069 9.5918 27.4764 9.84044 26.8184 9.52344C26.1254 9.18844 25.5605 9.39338 24.9395 9.35938C24.5115 9.33637 24.0088 9.40117 23.6738 9.20117C22.7568 8.65317 21.9878 9.03367 21.1738 9.38867C20.9748 9.47567 20.7318 9.46114 20.5098 9.49414C20.4898 9.25114 20.4371 9.00562 20.4551 8.76562C20.4821 8.39362 20.6667 8.0012 20.5938 7.6582C20.3577 6.5552 19.3847 6 18.3457 6ZM21.3301 10.873C21.6269 10.8809 21.9557 10.9664 22.3086 11.1348C21.6376 11.4468 21.0732 11.7259 20.4922 11.9629C20.3832 12.0069 20.1762 11.9172 20.0742 11.8242C20.0272 11.7822 20.0921 11.5581 20.1621 11.4551C20.4302 11.062 20.8353 10.86 21.3301 10.873Z" fill="#EDA000"/>
</svg>
